<svg width="132" height="40" viewBox="0 0 129 32" fill="none" xmlns="http://www.w3.org/2000/svg">
    <path d="M129 30.9619H122.71V17.512H111.074V30.9619H104.829V0.992935H111.074V12.2764H122.71V0.992935H129V30.9619Z" fill="#DFFE00"/>
    <path d="M93.4308 30.9619H87.186V6.22848H78.2006V0.992935H102.461V6.22848H93.4308V30.9619Z" fill="#DFFE00"/>
    <path d="M75.9174 30.9619H70.1667L57.4075 10.8321V30.9619H51.6119V0.992935H58.2162L70.0769 20.2651V0.992935H75.9174V30.9619Z" fill="#DFFE00"/>
    <path d="M39.3665 30.9619H33.1217V19.6333L22.7885 0.992935H30.0666L36.3564 13.1791L42.152 0.992935H49.3403L39.3665 19.7235V30.9619Z" fill="#DFFE00"/>
    <path d="M23.5866 9.83921H17.6563C17.3418 6.7701 15.4998 5.28068 11.7259 5.28068C8.22163 5.28068 6.37963 6.54443 6.37963 8.80113C6.37963 10.6968 7.68251 11.78 11.0071 12.5924C14.3766 13.4048 17.6563 14.2172 19.8577 15.2102C22.4635 16.3836 24.5301 18.2341 24.5301 22.4767C24.5301 29.0663 19.5882 32 12.6245 32C5.25645 32 0.134781 28.7052 0 21.9803H6.02021C6.11006 25.0494 8.6709 26.945 12.6694 26.945C16.3534 26.945 18.465 25.3653 18.465 22.7024C18.465 20.9422 17.5664 19.7236 13.8375 18.9111C10.1535 18.0987 7.77236 17.5571 5.66079 16.6093C2.47098 15.165 0.673905 12.9986 0.673905 9.20733C0.673905 3.83639 4.31299 0 11.5912 0C19.1389 0 23.362 4.10719 23.5866 9.83921Z" fill="#DFFE00"/>
</svg>
